<mxfile host="app.diagrams.net" modified="2022-01-15T10:03:07.203Z" agent="5.0 (Windows NT 10.0; Win64; x64) AppleWebKit/537.36 (KHTML, like Gecko) Chrome/97.0.4692.71 Safari/537.36 Edg/97.0.1072.55" etag="cRNOwgggv4lqGq849BRH" version="16.2.7" type="github">
  <diagram id="x9V3vo5HXDj5IL_ailm6" name="Page-1">
    <mxGraphModel dx="1422" dy="794" grid="1" gridSize="10" guides="1" tooltips="1" connect="1" arrows="1" fold="1" page="1" pageScale="1" pageWidth="1654" pageHeight="1169" math="0" shadow="0">
      <root>
        <mxCell id="0" />
        <mxCell id="1" parent="0" />
        <mxCell id="Q9XKaDRnh7uLaNWa5Wyn-1" value="" style="whiteSpace=wrap;html=1;aspect=fixed;" parent="1" vertex="1">
          <mxGeometry x="440" y="115" width="800" height="800" as="geometry" />
        </mxCell>
        <mxCell id="Q9XKaDRnh7uLaNWa5Wyn-3" value="" style="endArrow=none;dashed=1;html=1;dashPattern=1 3;strokeWidth=2;rounded=0;entryX=0.049;entryY=-0.005;entryDx=0;entryDy=0;entryPerimeter=0;exitX=0.05;exitY=1.005;exitDx=0;exitDy=0;exitPerimeter=0;" parent="1" edge="1">
          <mxGeometry width="50" height="50" relative="1" as="geometry">
            <mxPoint x="480" y="923" as="sourcePoint" />
            <mxPoint x="479.1999999999998" y="115" as="targetPoint" />
          </mxGeometry>
        </mxCell>
        <mxCell id="Q9XKaDRnh7uLaNWa5Wyn-4" value="" style="endArrow=none;dashed=1;html=1;dashPattern=1 3;strokeWidth=2;rounded=0;entryX=0.049;entryY=-0.005;entryDx=0;entryDy=0;entryPerimeter=0;exitX=0.05;exitY=1.005;exitDx=0;exitDy=0;exitPerimeter=0;" parent="1" edge="1">
          <mxGeometry width="50" height="50" relative="1" as="geometry">
            <mxPoint x="520.8" y="923" as="sourcePoint" />
            <mxPoint x="519.9999999999998" y="115" as="targetPoint" />
          </mxGeometry>
        </mxCell>
        <mxCell id="Q9XKaDRnh7uLaNWa5Wyn-5" value="" style="endArrow=none;dashed=1;html=1;dashPattern=1 3;strokeWidth=2;rounded=0;entryX=0.049;entryY=-0.005;entryDx=0;entryDy=0;entryPerimeter=0;exitX=0.05;exitY=1.005;exitDx=0;exitDy=0;exitPerimeter=0;" parent="1" edge="1">
          <mxGeometry width="50" height="50" relative="1" as="geometry">
            <mxPoint x="559" y="922" as="sourcePoint" />
            <mxPoint x="558.1999999999998" y="114" as="targetPoint" />
          </mxGeometry>
        </mxCell>
        <mxCell id="Q9XKaDRnh7uLaNWa5Wyn-6" value="" style="endArrow=none;dashed=1;html=1;dashPattern=1 3;strokeWidth=2;rounded=0;entryX=0.049;entryY=-0.005;entryDx=0;entryDy=0;entryPerimeter=0;exitX=0.05;exitY=1.005;exitDx=0;exitDy=0;exitPerimeter=0;" parent="1" edge="1">
          <mxGeometry width="50" height="50" relative="1" as="geometry">
            <mxPoint x="599.8000000000002" y="922" as="sourcePoint" />
            <mxPoint x="599" y="114" as="targetPoint" />
          </mxGeometry>
        </mxCell>
        <mxCell id="Q9XKaDRnh7uLaNWa5Wyn-7" value="" style="endArrow=none;dashed=1;html=1;dashPattern=1 3;strokeWidth=2;rounded=0;entryX=0.049;entryY=-0.005;entryDx=0;entryDy=0;entryPerimeter=0;exitX=0.05;exitY=1.005;exitDx=0;exitDy=0;exitPerimeter=0;" parent="1" edge="1">
          <mxGeometry width="50" height="50" relative="1" as="geometry">
            <mxPoint x="640" y="924" as="sourcePoint" />
            <mxPoint x="639.1999999999998" y="116" as="targetPoint" />
          </mxGeometry>
        </mxCell>
        <mxCell id="Q9XKaDRnh7uLaNWa5Wyn-8" value="" style="endArrow=none;dashed=1;html=1;dashPattern=1 3;strokeWidth=2;rounded=0;entryX=0.049;entryY=-0.005;entryDx=0;entryDy=0;entryPerimeter=0;exitX=0.05;exitY=1.005;exitDx=0;exitDy=0;exitPerimeter=0;" parent="1" edge="1">
          <mxGeometry width="50" height="50" relative="1" as="geometry">
            <mxPoint x="680.8000000000002" y="924" as="sourcePoint" />
            <mxPoint x="680" y="116" as="targetPoint" />
          </mxGeometry>
        </mxCell>
        <mxCell id="Q9XKaDRnh7uLaNWa5Wyn-9" value="" style="endArrow=none;dashed=1;html=1;dashPattern=1 3;strokeWidth=2;rounded=0;entryX=0.049;entryY=-0.005;entryDx=0;entryDy=0;entryPerimeter=0;exitX=0.05;exitY=1.005;exitDx=0;exitDy=0;exitPerimeter=0;" parent="1" edge="1">
          <mxGeometry width="50" height="50" relative="1" as="geometry">
            <mxPoint x="719" y="923" as="sourcePoint" />
            <mxPoint x="718.1999999999998" y="115" as="targetPoint" />
          </mxGeometry>
        </mxCell>
        <mxCell id="Q9XKaDRnh7uLaNWa5Wyn-10" value="" style="endArrow=none;dashed=1;html=1;dashPattern=1 3;strokeWidth=2;rounded=0;entryX=0.049;entryY=-0.005;entryDx=0;entryDy=0;entryPerimeter=0;exitX=0.05;exitY=1.005;exitDx=0;exitDy=0;exitPerimeter=0;" parent="1" edge="1">
          <mxGeometry width="50" height="50" relative="1" as="geometry">
            <mxPoint x="759.8000000000002" y="923" as="sourcePoint" />
            <mxPoint x="759" y="115" as="targetPoint" />
          </mxGeometry>
        </mxCell>
        <mxCell id="Q9XKaDRnh7uLaNWa5Wyn-27" value="" style="endArrow=none;dashed=1;html=1;dashPattern=1 3;strokeWidth=2;rounded=0;entryX=0.049;entryY=-0.005;entryDx=0;entryDy=0;entryPerimeter=0;exitX=0.05;exitY=1.005;exitDx=0;exitDy=0;exitPerimeter=0;" parent="1" edge="1">
          <mxGeometry width="50" height="50" relative="1" as="geometry">
            <mxPoint x="801" y="921" as="sourcePoint" />
            <mxPoint x="800.1999999999998" y="113" as="targetPoint" />
          </mxGeometry>
        </mxCell>
        <mxCell id="Q9XKaDRnh7uLaNWa5Wyn-28" value="" style="endArrow=none;dashed=1;html=1;dashPattern=1 3;strokeWidth=2;rounded=0;entryX=0.049;entryY=-0.005;entryDx=0;entryDy=0;entryPerimeter=0;exitX=0.05;exitY=1.005;exitDx=0;exitDy=0;exitPerimeter=0;" parent="1" edge="1">
          <mxGeometry width="50" height="50" relative="1" as="geometry">
            <mxPoint x="841.8000000000002" y="921" as="sourcePoint" />
            <mxPoint x="841" y="113" as="targetPoint" />
          </mxGeometry>
        </mxCell>
        <mxCell id="Q9XKaDRnh7uLaNWa5Wyn-29" value="" style="endArrow=none;dashed=1;html=1;dashPattern=1 3;strokeWidth=2;rounded=0;entryX=0.049;entryY=-0.005;entryDx=0;entryDy=0;entryPerimeter=0;exitX=0.05;exitY=1.005;exitDx=0;exitDy=0;exitPerimeter=0;" parent="1" edge="1">
          <mxGeometry width="50" height="50" relative="1" as="geometry">
            <mxPoint x="880" y="920" as="sourcePoint" />
            <mxPoint x="879.1999999999998" y="112" as="targetPoint" />
          </mxGeometry>
        </mxCell>
        <mxCell id="Q9XKaDRnh7uLaNWa5Wyn-30" value="" style="endArrow=none;dashed=1;html=1;dashPattern=1 3;strokeWidth=2;rounded=0;entryX=0.049;entryY=-0.005;entryDx=0;entryDy=0;entryPerimeter=0;exitX=0.05;exitY=1.005;exitDx=0;exitDy=0;exitPerimeter=0;" parent="1" edge="1">
          <mxGeometry width="50" height="50" relative="1" as="geometry">
            <mxPoint x="920.8000000000002" y="920" as="sourcePoint" />
            <mxPoint x="920" y="112" as="targetPoint" />
          </mxGeometry>
        </mxCell>
        <mxCell id="Q9XKaDRnh7uLaNWa5Wyn-31" value="" style="endArrow=none;dashed=1;html=1;dashPattern=1 3;strokeWidth=2;rounded=0;entryX=0.049;entryY=-0.005;entryDx=0;entryDy=0;entryPerimeter=0;exitX=0.05;exitY=1.005;exitDx=0;exitDy=0;exitPerimeter=0;" parent="1" edge="1">
          <mxGeometry width="50" height="50" relative="1" as="geometry">
            <mxPoint x="961" y="922" as="sourcePoint" />
            <mxPoint x="960.1999999999998" y="114" as="targetPoint" />
          </mxGeometry>
        </mxCell>
        <mxCell id="Q9XKaDRnh7uLaNWa5Wyn-32" value="" style="endArrow=none;dashed=1;html=1;dashPattern=1 3;strokeWidth=2;rounded=0;entryX=0.049;entryY=-0.005;entryDx=0;entryDy=0;entryPerimeter=0;exitX=0.05;exitY=1.005;exitDx=0;exitDy=0;exitPerimeter=0;" parent="1" edge="1">
          <mxGeometry width="50" height="50" relative="1" as="geometry">
            <mxPoint x="1001.8000000000002" y="922" as="sourcePoint" />
            <mxPoint x="1001" y="114" as="targetPoint" />
          </mxGeometry>
        </mxCell>
        <mxCell id="Q9XKaDRnh7uLaNWa5Wyn-33" value="" style="endArrow=none;dashed=1;html=1;dashPattern=1 3;strokeWidth=2;rounded=0;entryX=0.049;entryY=-0.005;entryDx=0;entryDy=0;entryPerimeter=0;exitX=0.05;exitY=1.005;exitDx=0;exitDy=0;exitPerimeter=0;" parent="1" edge="1">
          <mxGeometry width="50" height="50" relative="1" as="geometry">
            <mxPoint x="1040" y="921" as="sourcePoint" />
            <mxPoint x="1039.1999999999998" y="113" as="targetPoint" />
          </mxGeometry>
        </mxCell>
        <mxCell id="Q9XKaDRnh7uLaNWa5Wyn-34" value="" style="endArrow=none;dashed=1;html=1;dashPattern=1 3;strokeWidth=2;rounded=0;entryX=0.049;entryY=-0.005;entryDx=0;entryDy=0;entryPerimeter=0;exitX=0.05;exitY=1.005;exitDx=0;exitDy=0;exitPerimeter=0;" parent="1" edge="1">
          <mxGeometry width="50" height="50" relative="1" as="geometry">
            <mxPoint x="1080.8000000000002" y="921" as="sourcePoint" />
            <mxPoint x="1080" y="113" as="targetPoint" />
          </mxGeometry>
        </mxCell>
        <mxCell id="Q9XKaDRnh7uLaNWa5Wyn-37" value="" style="endArrow=none;dashed=1;html=1;dashPattern=1 3;strokeWidth=2;rounded=0;entryX=0.049;entryY=-0.005;entryDx=0;entryDy=0;entryPerimeter=0;exitX=0.05;exitY=1.005;exitDx=0;exitDy=0;exitPerimeter=0;" parent="1" edge="1">
          <mxGeometry width="50" height="50" relative="1" as="geometry">
            <mxPoint x="1120.8000000000002" y="924" as="sourcePoint" />
            <mxPoint x="1120" y="116" as="targetPoint" />
          </mxGeometry>
        </mxCell>
        <mxCell id="Q9XKaDRnh7uLaNWa5Wyn-38" value="" style="endArrow=none;dashed=1;html=1;dashPattern=1 3;strokeWidth=2;rounded=0;entryX=0.049;entryY=-0.005;entryDx=0;entryDy=0;entryPerimeter=0;exitX=0.05;exitY=1.005;exitDx=0;exitDy=0;exitPerimeter=0;" parent="1" edge="1">
          <mxGeometry width="50" height="50" relative="1" as="geometry">
            <mxPoint x="1199.8000000000002" y="922" as="sourcePoint" />
            <mxPoint x="1199" y="114" as="targetPoint" />
          </mxGeometry>
        </mxCell>
        <mxCell id="Q9XKaDRnh7uLaNWa5Wyn-39" value="" style="endArrow=none;dashed=1;html=1;dashPattern=1 3;strokeWidth=2;rounded=0;entryX=0.049;entryY=-0.005;entryDx=0;entryDy=0;entryPerimeter=0;exitX=0.05;exitY=1.005;exitDx=0;exitDy=0;exitPerimeter=0;" parent="1" edge="1">
          <mxGeometry width="50" height="50" relative="1" as="geometry">
            <mxPoint x="1159" y="922" as="sourcePoint" />
            <mxPoint x="1158.1999999999998" y="114" as="targetPoint" />
          </mxGeometry>
        </mxCell>
        <mxCell id="Q9XKaDRnh7uLaNWa5Wyn-59" value="" style="endArrow=none;dashed=1;html=1;dashPattern=1 3;strokeWidth=2;rounded=0;exitX=-0.002;exitY=0.051;exitDx=0;exitDy=0;exitPerimeter=0;entryX=1.004;entryY=0.052;entryDx=0;entryDy=0;entryPerimeter=0;" parent="1" edge="1">
          <mxGeometry width="50" height="50" relative="1" as="geometry">
            <mxPoint x="438.4000000000001" y="160.79999999999995" as="sourcePoint" />
            <mxPoint x="1243.1999999999998" y="161.5999999999999" as="targetPoint" />
          </mxGeometry>
        </mxCell>
        <mxCell id="Q9XKaDRnh7uLaNWa5Wyn-60" value="" style="endArrow=none;dashed=1;html=1;dashPattern=1 3;strokeWidth=2;rounded=0;exitX=-0.002;exitY=0.051;exitDx=0;exitDy=0;exitPerimeter=0;entryX=1.004;entryY=0.052;entryDx=0;entryDy=0;entryPerimeter=0;" parent="1" edge="1">
          <mxGeometry width="50" height="50" relative="1" as="geometry">
            <mxPoint x="440.0000000000001" y="199.99999999999994" as="sourcePoint" />
            <mxPoint x="1244.7999999999997" y="200.7999999999999" as="targetPoint" />
          </mxGeometry>
        </mxCell>
        <mxCell id="Q9XKaDRnh7uLaNWa5Wyn-61" value="" style="endArrow=none;dashed=1;html=1;dashPattern=1 3;strokeWidth=2;rounded=0;exitX=-0.002;exitY=0.051;exitDx=0;exitDy=0;exitPerimeter=0;entryX=1.004;entryY=0.052;entryDx=0;entryDy=0;entryPerimeter=0;" parent="1" edge="1">
          <mxGeometry width="50" height="50" relative="1" as="geometry">
            <mxPoint x="439.0000000000001" y="239.99999999999994" as="sourcePoint" />
            <mxPoint x="1243.7999999999997" y="240.7999999999999" as="targetPoint" />
          </mxGeometry>
        </mxCell>
        <mxCell id="Q9XKaDRnh7uLaNWa5Wyn-62" value="" style="endArrow=none;dashed=1;html=1;dashPattern=1 3;strokeWidth=2;rounded=0;exitX=-0.002;exitY=0.051;exitDx=0;exitDy=0;exitPerimeter=0;entryX=1.004;entryY=0.052;entryDx=0;entryDy=0;entryPerimeter=0;" parent="1" edge="1">
          <mxGeometry width="50" height="50" relative="1" as="geometry">
            <mxPoint x="440.6" y="279.2" as="sourcePoint" />
            <mxPoint x="1245.3999999999996" y="279.99999999999994" as="targetPoint" />
          </mxGeometry>
        </mxCell>
        <mxCell id="Q9XKaDRnh7uLaNWa5Wyn-67" value="" style="endArrow=none;dashed=1;html=1;dashPattern=1 3;strokeWidth=2;rounded=0;exitX=-0.002;exitY=0.051;exitDx=0;exitDy=0;exitPerimeter=0;entryX=1.004;entryY=0.052;entryDx=0;entryDy=0;entryPerimeter=0;" parent="1" edge="1">
          <mxGeometry width="50" height="50" relative="1" as="geometry">
            <mxPoint x="438.4000000000001" y="317.79999999999995" as="sourcePoint" />
            <mxPoint x="1243.1999999999998" y="318.5999999999999" as="targetPoint" />
          </mxGeometry>
        </mxCell>
        <mxCell id="Q9XKaDRnh7uLaNWa5Wyn-68" value="" style="endArrow=none;dashed=1;html=1;dashPattern=1 3;strokeWidth=2;rounded=0;exitX=-0.002;exitY=0.051;exitDx=0;exitDy=0;exitPerimeter=0;entryX=1.004;entryY=0.052;entryDx=0;entryDy=0;entryPerimeter=0;" parent="1" edge="1">
          <mxGeometry width="50" height="50" relative="1" as="geometry">
            <mxPoint x="440" y="357" as="sourcePoint" />
            <mxPoint x="1244.7999999999997" y="357.79999999999995" as="targetPoint" />
          </mxGeometry>
        </mxCell>
        <mxCell id="Q9XKaDRnh7uLaNWa5Wyn-69" value="" style="endArrow=none;dashed=1;html=1;dashPattern=1 3;strokeWidth=2;rounded=0;exitX=-0.002;exitY=0.051;exitDx=0;exitDy=0;exitPerimeter=0;entryX=1.004;entryY=0.052;entryDx=0;entryDy=0;entryPerimeter=0;" parent="1" edge="1">
          <mxGeometry width="50" height="50" relative="1" as="geometry">
            <mxPoint x="439" y="397" as="sourcePoint" />
            <mxPoint x="1243.7999999999997" y="397.79999999999995" as="targetPoint" />
          </mxGeometry>
        </mxCell>
        <mxCell id="Q9XKaDRnh7uLaNWa5Wyn-70" value="" style="endArrow=none;dashed=1;html=1;dashPattern=1 3;strokeWidth=2;rounded=0;exitX=-0.002;exitY=0.051;exitDx=0;exitDy=0;exitPerimeter=0;entryX=1.004;entryY=0.052;entryDx=0;entryDy=0;entryPerimeter=0;" parent="1" edge="1">
          <mxGeometry width="50" height="50" relative="1" as="geometry">
            <mxPoint x="440.5999999999999" y="436.20000000000005" as="sourcePoint" />
            <mxPoint x="1245.3999999999996" y="437" as="targetPoint" />
          </mxGeometry>
        </mxCell>
        <mxCell id="Q9XKaDRnh7uLaNWa5Wyn-72" value="" style="endArrow=none;dashed=1;html=1;dashPattern=1 3;strokeWidth=2;rounded=0;exitX=-0.002;exitY=0.051;exitDx=0;exitDy=0;exitPerimeter=0;entryX=1.004;entryY=0.052;entryDx=0;entryDy=0;entryPerimeter=0;" parent="1" edge="1">
          <mxGeometry width="50" height="50" relative="1" as="geometry">
            <mxPoint x="438.20000000000005" y="800" as="sourcePoint" />
            <mxPoint x="1242.9999999999995" y="800.8" as="targetPoint" />
          </mxGeometry>
        </mxCell>
        <mxCell id="Q9XKaDRnh7uLaNWa5Wyn-73" value="" style="endArrow=none;dashed=1;html=1;dashPattern=1 3;strokeWidth=2;rounded=0;exitX=-0.002;exitY=0.051;exitDx=0;exitDy=0;exitPerimeter=0;entryX=1.004;entryY=0.052;entryDx=0;entryDy=0;entryPerimeter=0;" parent="1" edge="1">
          <mxGeometry width="50" height="50" relative="1" as="geometry">
            <mxPoint x="440" y="840" as="sourcePoint" />
            <mxPoint x="1244.7999999999997" y="840.8" as="targetPoint" />
          </mxGeometry>
        </mxCell>
        <mxCell id="Q9XKaDRnh7uLaNWa5Wyn-74" value="" style="endArrow=none;dashed=1;html=1;dashPattern=1 3;strokeWidth=2;rounded=0;exitX=-0.002;exitY=0.051;exitDx=0;exitDy=0;exitPerimeter=0;entryX=1.004;entryY=0.052;entryDx=0;entryDy=0;entryPerimeter=0;" parent="1" edge="1">
          <mxGeometry width="50" height="50" relative="1" as="geometry">
            <mxPoint x="438.5999999999999" y="880" as="sourcePoint" />
            <mxPoint x="1243.3999999999996" y="880.8" as="targetPoint" />
          </mxGeometry>
        </mxCell>
        <mxCell id="Q9XKaDRnh7uLaNWa5Wyn-75" value="" style="endArrow=none;dashed=1;html=1;dashPattern=1 3;strokeWidth=2;rounded=0;exitX=-0.002;exitY=0.051;exitDx=0;exitDy=0;exitPerimeter=0;entryX=1.004;entryY=0.052;entryDx=0;entryDy=0;entryPerimeter=0;" parent="1" edge="1">
          <mxGeometry width="50" height="50" relative="1" as="geometry">
            <mxPoint x="438.4000000000001" y="636.8" as="sourcePoint" />
            <mxPoint x="1243.1999999999998" y="637.5999999999999" as="targetPoint" />
          </mxGeometry>
        </mxCell>
        <mxCell id="Q9XKaDRnh7uLaNWa5Wyn-76" value="" style="endArrow=none;dashed=1;html=1;dashPattern=1 3;strokeWidth=2;rounded=0;exitX=-0.002;exitY=0.051;exitDx=0;exitDy=0;exitPerimeter=0;entryX=1.004;entryY=0.052;entryDx=0;entryDy=0;entryPerimeter=0;" parent="1" edge="1">
          <mxGeometry width="50" height="50" relative="1" as="geometry">
            <mxPoint x="440" y="676" as="sourcePoint" />
            <mxPoint x="1244.7999999999997" y="676.8" as="targetPoint" />
          </mxGeometry>
        </mxCell>
        <mxCell id="Q9XKaDRnh7uLaNWa5Wyn-77" value="" style="endArrow=none;dashed=1;html=1;dashPattern=1 3;strokeWidth=2;rounded=0;exitX=-0.002;exitY=0.051;exitDx=0;exitDy=0;exitPerimeter=0;entryX=1.004;entryY=0.052;entryDx=0;entryDy=0;entryPerimeter=0;" parent="1" edge="1">
          <mxGeometry width="50" height="50" relative="1" as="geometry">
            <mxPoint x="439" y="716" as="sourcePoint" />
            <mxPoint x="1243.7999999999997" y="716.8" as="targetPoint" />
          </mxGeometry>
        </mxCell>
        <mxCell id="Q9XKaDRnh7uLaNWa5Wyn-78" value="" style="endArrow=none;dashed=1;html=1;dashPattern=1 3;strokeWidth=2;rounded=0;exitX=-0.002;exitY=0.051;exitDx=0;exitDy=0;exitPerimeter=0;entryX=1.004;entryY=0.052;entryDx=0;entryDy=0;entryPerimeter=0;" parent="1" edge="1">
          <mxGeometry width="50" height="50" relative="1" as="geometry">
            <mxPoint x="440.5999999999999" y="755.2" as="sourcePoint" />
            <mxPoint x="1245.3999999999996" y="756" as="targetPoint" />
          </mxGeometry>
        </mxCell>
        <mxCell id="Q9XKaDRnh7uLaNWa5Wyn-79" value="" style="endArrow=none;dashed=1;html=1;dashPattern=1 3;strokeWidth=2;rounded=0;exitX=-0.002;exitY=0.051;exitDx=0;exitDy=0;exitPerimeter=0;entryX=1.004;entryY=0.052;entryDx=0;entryDy=0;entryPerimeter=0;" parent="1" edge="1">
          <mxGeometry width="50" height="50" relative="1" as="geometry">
            <mxPoint x="440" y="479.79999999999995" as="sourcePoint" />
            <mxPoint x="1244.7999999999997" y="480.5999999999999" as="targetPoint" />
          </mxGeometry>
        </mxCell>
        <mxCell id="Q9XKaDRnh7uLaNWa5Wyn-80" value="" style="endArrow=none;dashed=1;html=1;dashPattern=1 3;strokeWidth=2;rounded=0;exitX=-0.002;exitY=0.051;exitDx=0;exitDy=0;exitPerimeter=0;entryX=1.004;entryY=0.052;entryDx=0;entryDy=0;entryPerimeter=0;" parent="1" edge="1">
          <mxGeometry width="50" height="50" relative="1" as="geometry">
            <mxPoint x="441.5999999999999" y="519" as="sourcePoint" />
            <mxPoint x="1246.3999999999996" y="519.8" as="targetPoint" />
          </mxGeometry>
        </mxCell>
        <mxCell id="Q9XKaDRnh7uLaNWa5Wyn-81" value="" style="endArrow=none;dashed=1;html=1;dashPattern=1 3;strokeWidth=2;rounded=0;exitX=-0.002;exitY=0.051;exitDx=0;exitDy=0;exitPerimeter=0;entryX=1.004;entryY=0.052;entryDx=0;entryDy=0;entryPerimeter=0;" parent="1" edge="1">
          <mxGeometry width="50" height="50" relative="1" as="geometry">
            <mxPoint x="440.5999999999999" y="559" as="sourcePoint" />
            <mxPoint x="1245.3999999999996" y="559.8" as="targetPoint" />
          </mxGeometry>
        </mxCell>
        <mxCell id="Q9XKaDRnh7uLaNWa5Wyn-82" value="" style="endArrow=none;dashed=1;html=1;dashPattern=1 3;strokeWidth=2;rounded=0;exitX=-0.002;exitY=0.051;exitDx=0;exitDy=0;exitPerimeter=0;entryX=1.004;entryY=0.052;entryDx=0;entryDy=0;entryPerimeter=0;" parent="1" edge="1">
          <mxGeometry width="50" height="50" relative="1" as="geometry">
            <mxPoint x="442.1999999999998" y="598.2" as="sourcePoint" />
            <mxPoint x="1246.9999999999995" y="599" as="targetPoint" />
          </mxGeometry>
        </mxCell>
        <mxCell id="Q9XKaDRnh7uLaNWa5Wyn-83" value="" style="whiteSpace=wrap;html=1;aspect=fixed;opacity=10;strokeWidth=11;fillColor=#1ba1e2;strokeColor=#006EAF;fontColor=#ffffff;" parent="1" vertex="1">
          <mxGeometry x="518" y="198" width="80" height="80" as="geometry" />
        </mxCell>
        <mxCell id="Q9XKaDRnh7uLaNWa5Wyn-87" value="" style="whiteSpace=wrap;html=1;aspect=fixed;opacity=10;strokeWidth=11;fillColor=#60a917;strokeColor=#2D7600;fontColor=#ffffff;" parent="1" vertex="1">
          <mxGeometry x="958" y="199" width="80" height="80" as="geometry" />
        </mxCell>
        <mxCell id="Q9XKaDRnh7uLaNWa5Wyn-89" value="" style="whiteSpace=wrap;html=1;aspect=fixed;opacity=10;strokeWidth=11;fillColor=#fad7ac;strokeColor=#b46504;" parent="1" vertex="1">
          <mxGeometry x="1078" y="641" width="80" height="80" as="geometry" />
        </mxCell>
        <mxCell id="Q9XKaDRnh7uLaNWa5Wyn-92" value="" style="whiteSpace=wrap;html=1;aspect=fixed;opacity=10;strokeWidth=11;fillColor=#e3c800;strokeColor=#B09500;fontColor=#000000;" parent="1" vertex="1">
          <mxGeometry x="558" y="719" width="80" height="80" as="geometry" />
        </mxCell>
        <mxCell id="Q9XKaDRnh7uLaNWa5Wyn-93" value="" style="endArrow=classic;startArrow=classic;html=1;rounded=0;strokeWidth=4;" parent="1" edge="1">
          <mxGeometry width="50" height="50" relative="1" as="geometry">
            <mxPoint x="440" y="519" as="sourcePoint" />
            <mxPoint x="1240" y="519" as="targetPoint" />
          </mxGeometry>
        </mxCell>
        <mxCell id="Q9XKaDRnh7uLaNWa5Wyn-94" value="" style="endArrow=classic;startArrow=classic;html=1;rounded=0;strokeWidth=4;" parent="1" edge="1">
          <mxGeometry width="50" height="50" relative="1" as="geometry">
            <mxPoint x="840" y="910" as="sourcePoint" />
            <mxPoint x="840" y="120" as="targetPoint" />
          </mxGeometry>
        </mxCell>
        <mxCell id="Q9XKaDRnh7uLaNWa5Wyn-95" value="" style="whiteSpace=wrap;html=1;aspect=fixed;opacity=10;strokeWidth=11;fillColor=#e51400;strokeColor=#B20000;fontColor=#ffffff;" parent="1" vertex="1">
          <mxGeometry x="757" y="435" width="163" height="163" as="geometry" />
        </mxCell>
        <mxCell id="gF0sU6cO7U2H9i24CWZ3-1" value="" style="whiteSpace=wrap;html=1;aspect=fixed;opacity=10;strokeWidth=28;fillColor=#FFFFFF;strokeColor=#000000;perimeterSpacing=0;" vertex="1" parent="1">
          <mxGeometry x="683" y="360" width="320" height="320" as="geometry" />
        </mxCell>
        <mxCell id="gF0sU6cO7U2H9i24CWZ3-3" value="Jammer&lt;br&gt;Area" style="text;html=1;strokeColor=none;fillColor=none;align=center;verticalAlign=middle;whiteSpace=wrap;rounded=0;fontSize=14;fontStyle=1" vertex="1" parent="1">
          <mxGeometry x="855" y="435" width="60" height="30" as="geometry" />
        </mxCell>
        <mxCell id="gF0sU6cO7U2H9i24CWZ3-4" value="Extended Jammer Area" style="text;html=1;strokeColor=none;fillColor=none;align=left;verticalAlign=middle;whiteSpace=wrap;rounded=0;fontSize=14;fontStyle=1" vertex="1" parent="1">
          <mxGeometry x="897" y="376" width="101" height="30" as="geometry" />
        </mxCell>
        <mxCell id="gF0sU6cO7U2H9i24CWZ3-5" value="Sliding&lt;br&gt;&lt;div style=&quot;text-align: left&quot;&gt;&lt;span&gt;Window 2&lt;/span&gt;&lt;/div&gt;" style="text;html=1;strokeColor=none;fillColor=none;align=center;verticalAlign=middle;whiteSpace=wrap;rounded=0;fontSize=14;fontStyle=1" vertex="1" parent="1">
          <mxGeometry x="525" y="205" width="73" height="30" as="geometry" />
        </mxCell>
        <mxCell id="gF0sU6cO7U2H9i24CWZ3-6" value="Sliding&lt;br&gt;&lt;div style=&quot;text-align: left&quot;&gt;&lt;span&gt;Window 1&lt;/span&gt;&lt;/div&gt;" style="text;html=1;strokeColor=none;fillColor=none;align=center;verticalAlign=middle;whiteSpace=wrap;rounded=0;fontSize=14;fontStyle=1" vertex="1" parent="1">
          <mxGeometry x="962" y="207" width="73" height="30" as="geometry" />
        </mxCell>
        <mxCell id="gF0sU6cO7U2H9i24CWZ3-7" value="Sliding&lt;br&gt;&lt;div style=&quot;text-align: left&quot;&gt;&lt;span&gt;Window 3&lt;/span&gt;&lt;/div&gt;" style="text;html=1;strokeColor=none;fillColor=none;align=center;verticalAlign=middle;whiteSpace=wrap;rounded=0;fontSize=14;fontStyle=1" vertex="1" parent="1">
          <mxGeometry x="560" y="724" width="73" height="30" as="geometry" />
        </mxCell>
        <mxCell id="gF0sU6cO7U2H9i24CWZ3-8" value="Sliding&lt;br&gt;&lt;div style=&quot;text-align: left&quot;&gt;&lt;span&gt;Window 4&lt;/span&gt;&lt;/div&gt;" style="text;html=1;strokeColor=none;fillColor=none;align=center;verticalAlign=middle;whiteSpace=wrap;rounded=0;fontSize=14;fontStyle=1" vertex="1" parent="1">
          <mxGeometry x="1086" y="648" width="73" height="30" as="geometry" />
        </mxCell>
      </root>
    </mxGraphModel>
  </diagram>
</mxfile>
